<svg width="49" height="46" viewBox="0 0 49 46" fill="none" xmlns="http://www.w3.org/2000/svg">
<path fill-rule="evenodd" clip-rule="evenodd" d="M43.3231 11.4249L39.2895 10.9739L35.5548 8.11768L32.2682 9.16996L26.8901 8.41833L25.9938 10.5229L29.2804 13.5294L21.8109 19.8432L14.6401 21.3464L10.756 17.7386L8.66452 19.2419L9.56086 22.549L13.7438 25.5556L14.0426 24.353L10.756 21.9477L10.4572 19.8432L14.0426 22.549L20.317 21.9477L25.0974 19.2419L30.7743 13.5294L27.7865 9.62094L32.2682 10.5229L35.8535 9.62094L39.1401 12.0262H41.8292L42.1279 13.2288L35.8535 16.2353L32.8657 21.3464L38.8414 23.7517L40.9328 26.7582L34.6584 24.353L27.7865 24.6536L20.6157 27.6602L19.4206 25.8562L14.0426 30.6667L5.67672 32.4706L11.3535 29.1634L12.2499 27.0589L11.0548 26.4575L10 28.5L7.76818 29.7647L6.2855 30.6667L4.48159 30.6667L3.88403 32.7713L8 33.5L9.5 33L18.5 29H21L29.5792 26.0556L34.6584 25.5556L41.5304 27.9608L42.1279 24.9543L34.3596 20.1438L36.4511 17.4379L42.4267 15.0327L43.3231 11.4249Z" fill="#12C7E5"/>
<path fill-rule="evenodd" clip-rule="evenodd" d="M35.5548 11.1243L34.9573 11.7256L35.2561 12.0262V12.3269H36.1524V11.4249L35.8536 11.1243H35.5548Z" fill="#12C7E5"/>
</svg>
