<svg width="80" height="80" viewBox="0 0 80 80" fill="none" xmlns="http://www.w3.org/2000/svg">
<path opacity="0.2" d="M40 78C60.9868 78 78 60.9868 78 40C78 19.0132 60.9868 2 40 2C19.0132 2 2 19.0132 2 40C2 60.9868 19.0132 78 40 78Z" fill="#D5654D" fill-opacity="0.1" stroke="#06B6D4" stroke-width="4"/>
<path opacity="0.4" d="M39.9999 70.6923C56.9508 70.6923 70.6922 56.9508 70.6922 40C70.6922 23.0491 56.9508 9.30765 39.9999 9.30765C23.049 9.30765 9.30762 23.0491 9.30762 40C9.30762 56.9508 23.049 70.6923 39.9999 70.6923Z" fill="#06B6D4" stroke="#787474" stroke-opacity="0.15" stroke-width="1.5"/>
<path d="M40 47.3077C37.5539 47.3077 35.4249 49.1566 34.3258 51.8841C33.8008 53.1868 34.5541 54.6154 35.5551 54.6154H44.4448C45.4458 54.6154 46.1991 53.1868 45.6741 51.8841C44.575 49.1566 42.446 47.3077 40 47.3077Z" stroke="#06B6D4" stroke-width="2" stroke-linecap="round"/>
<path d="M49.5 29.7693H51.2571C53.0123 29.7693 53.8898 29.7693 54.3477 30.3208C54.8054 30.8723 54.6151 31.7001 54.2344 33.3558L53.6632 35.8391C52.8044 39.5741 49.6621 42.3513 45.8462 42.9231" stroke="#06B6D4" stroke-width="2" stroke-linecap="round" stroke-linejoin="round"/>
<path d="M30.4997 29.7693H28.7426C26.9875 29.7693 26.1099 29.7693 25.6521 30.3208C25.1943 30.8723 25.3846 31.7001 25.7654 33.3558L26.3364 35.8391C27.1953 39.5741 30.3376 42.3513 34.1535 42.9231" stroke="#06B6D4" stroke-width="2" stroke-linecap="round" stroke-linejoin="round"/>
<path d="M40 47.3077C44.415 47.3077 48.1335 40.4939 49.2511 31.2175C49.5602 28.652 49.7148 27.3693 48.8961 26.377C48.0775 25.3846 46.7557 25.3846 44.1119 25.3846H35.8881C33.2444 25.3846 31.9226 25.3846 31.1039 26.377C30.2852 27.3693 30.4397 28.652 30.7488 31.2175C31.8665 40.4939 35.585 47.3077 40 47.3077Z" stroke="#06B6D4" stroke-width="2" stroke-linecap="round"/>
</svg>
